<svg width="16" height="16" viewBox="0 0 16 16" fill="none" xmlns="http://www.w3.org/2000/svg">
<g clip-path="url(#clip0_24_4)">
<path d="M7.99999 4.73602C7.75255 4.73602 7.51523 4.63772 7.34026 4.46275C7.16529 4.28778 7.06699 4.05047 7.06699 3.80302V1.00502C7.06699 0.757574 7.16529 0.520262 7.34026 0.345291C7.51523 0.170319 7.75255 0.0720215 7.99999 0.0720215C8.24744 0.0720215 8.48475 0.170319 8.65973 0.345291C8.8347 0.520262 8.93299 0.757574 8.93299 1.00502V3.80302C8.93299 4.05047 8.8347 4.28778 8.65973 4.46275C8.48475 4.63772 8.24744 4.73602 7.99999 4.73602ZM7.99999 15.577C7.84537 15.577 7.69708 15.5156 7.58775 15.4063C7.47842 15.2969 7.41699 15.1486 7.41699 14.994V12.196C7.41699 12.0414 7.47842 11.8931 7.58775 11.7838C7.69708 11.6744 7.84537 11.613 7.99999 11.613C8.15462 11.613 8.3029 11.6744 8.41224 11.7838C8.52157 11.8931 8.58299 12.0414 8.58299 12.196V14.994C8.58299 15.1486 8.52157 15.2969 8.41224 15.4063C8.3029 15.5156 8.15462 15.577 7.99999 15.577ZM5.90199 5.24002C5.74851 5.23961 5.5978 5.19906 5.46483 5.1224C5.33187 5.04574 5.22126 4.93564 5.14399 4.80302L3.74499 2.38002C3.62909 2.17925 3.5977 1.94067 3.65771 1.71675C3.71772 1.49283 3.86423 1.30192 4.06499 1.18602C4.26576 1.07012 4.50435 1.03872 4.72827 1.09874C4.95219 1.15875 5.14309 1.30525 5.25899 1.50602L6.65799 3.92902C6.73467 4.06182 6.77505 4.21245 6.77509 4.3658C6.77513 4.51914 6.73482 4.66979 6.65822 4.80263C6.58162 4.93547 6.47142 5.04581 6.33868 5.12259C6.20594 5.19936 6.05534 5.23986 5.90199 5.24002ZM11.498 14.582C11.4059 14.5816 11.3156 14.5573 11.2358 14.5113C11.156 14.4654 11.0895 14.3994 11.043 14.32L9.64399 11.897C9.6076 11.8373 9.58353 11.7708 9.57318 11.7016C9.56283 11.6324 9.56641 11.5619 9.58372 11.4941C9.60104 11.4263 9.63173 11.3626 9.67399 11.3069C9.71626 11.2511 9.76924 11.2043 9.82983 11.1693C9.89042 11.1344 9.95739 11.1118 10.0268 11.1031C10.0962 11.0943 10.1667 11.0996 10.2341 11.1184C10.3015 11.1373 10.3644 11.1695 10.4191 11.213C10.4739 11.2566 10.5194 11.3106 10.553 11.372L11.952 13.795C11.9979 13.8748 12.0221 13.9652 12.022 14.0572C12.022 14.1492 11.9978 14.2396 11.9518 14.3194C11.9058 14.3991 11.8397 14.4653 11.76 14.5114C11.6804 14.5575 11.59 14.5819 11.498 14.582ZM4.36499 6.71802C4.22202 6.71871 4.08148 6.68107 3.95799 6.60902L1.53499 5.21002C1.35705 5.09712 1.22961 4.91982 1.17931 4.71516C1.12901 4.51051 1.15974 4.29433 1.26507 4.1118C1.37041 3.92927 1.5422 3.7945 1.74457 3.73566C1.94693 3.67681 2.1642 3.69844 2.35099 3.79602L4.77399 5.19502C4.92895 5.28526 5.04991 5.42398 5.11823 5.58977C5.18655 5.75557 5.19842 5.93923 5.15202 6.11244C5.10561 6.28565 5.00352 6.43878 4.86147 6.54822C4.71942 6.65766 4.54531 6.71733 4.36599 6.71802H4.36499ZM14.057 11.964C13.9751 11.9641 13.8947 11.9424 13.824 11.901L11.401 10.502C11.3006 10.4369 11.2289 10.3358 11.2009 10.2195C11.1729 10.1031 11.1906 9.98045 11.2504 9.87678C11.3102 9.77312 11.4075 9.69636 11.5222 9.66235C11.637 9.62834 11.7604 9.63968 11.867 9.69402L14.29 11.093C14.3783 11.1447 14.4472 11.224 14.486 11.3186C14.5249 11.4132 14.5316 11.518 14.5051 11.6168C14.4787 11.7157 14.4205 11.8031 14.3395 11.8656C14.2586 11.9282 14.1593 11.9634 14.057 11.964ZM3.80299 8.75802H1.00499C0.80396 8.75802 0.61116 8.67816 0.469007 8.53601C0.326855 8.39386 0.246994 8.20106 0.246994 8.00002C0.246994 7.79899 0.326855 7.60619 0.469007 7.46403C0.61116 7.32188 0.80396 7.24202 1.00499 7.24202H3.80299C4.00403 7.24202 4.19683 7.32188 4.33898 7.46403C4.48113 7.60619 4.56099 7.79899 4.56099 8.00002C4.56099 8.20106 4.48113 8.39386 4.33898 8.53601C4.19683 8.67816 4.00403 8.75802 3.80299 8.75802ZM14.995 8.46602H12.197C12.0734 8.46602 11.9549 8.41693 11.8675 8.32953C11.7801 8.24214 11.731 8.12361 11.731 8.00002C11.731 7.87643 11.7801 7.7579 11.8675 7.67051C11.9549 7.58312 12.0734 7.53402 12.197 7.53402H14.995C15.1186 7.53402 15.2371 7.58312 15.3245 7.67051C15.4119 7.7579 15.461 7.87643 15.461 8.00002C15.461 8.12361 15.4119 8.24214 15.3245 8.32953C15.2371 8.41693 15.1186 8.46602 14.995 8.46602ZM1.94299 12.197C1.78844 12.1982 1.63786 12.1481 1.51487 12.0545C1.39188 11.9609 1.30343 11.8291 1.26339 11.6799C1.22335 11.5306 1.234 11.3722 1.29365 11.2296C1.3533 11.0871 1.45858 10.9683 1.59299 10.892L4.01599 9.49302C4.17658 9.40033 4.36742 9.37523 4.54651 9.42323C4.63519 9.44701 4.71832 9.48801 4.79115 9.54391C4.86399 9.59981 4.9251 9.66951 4.97099 9.74902C5.01689 9.82854 5.04668 9.91631 5.05865 10.0073C5.07062 10.0984 5.06455 10.1909 5.04078 10.2795C5.01701 10.3682 4.976 10.4514 4.9201 10.5242C4.86421 10.597 4.79451 10.6581 4.71499 10.704L2.29199 12.103C2.1859 12.1644 2.06555 12.1968 1.94299 12.197ZM11.635 6.36802C11.5323 6.36819 11.4324 6.33441 11.3508 6.27194C11.2693 6.20946 11.2107 6.1218 11.1841 6.02258C11.1575 5.92335 11.1645 5.81813 11.2039 5.72326C11.2433 5.6284 11.3129 5.54922 11.402 5.49802L13.825 4.09902C13.878 4.06842 13.9366 4.04857 13.9973 4.04061C14.0581 4.03264 14.1198 4.03672 14.1789 4.05259C14.2381 4.06847 14.2935 4.09585 14.3421 4.13315C14.3906 4.17046 14.4314 4.21697 14.462 4.27002C14.4926 4.32308 14.5124 4.38164 14.5204 4.44236C14.5284 4.50309 14.5243 4.56479 14.5084 4.62394C14.4925 4.68309 14.4652 4.73853 14.4279 4.7871C14.3906 4.83568 14.344 4.87642 14.291 4.90702L11.868 6.30602C11.7966 6.34573 11.7166 6.36636 11.635 6.36802ZM4.50199 14.699C4.38929 14.6994 4.2785 14.6699 4.18083 14.6137C4.08315 14.5575 4.00205 14.4765 3.94573 14.3788C3.88941 14.2812 3.85987 14.1705 3.86009 14.0578C3.86031 13.9451 3.89029 13.8344 3.94699 13.737L5.34599 11.314C5.38808 11.2411 5.44413 11.1771 5.51093 11.1258C5.57773 11.0745 5.65398 11.0369 5.73532 11.0151C5.81667 10.9933 5.90151 10.9877 5.98502 10.9987C6.06852 11.0096 6.14904 11.0369 6.22199 11.079C6.29494 11.1211 6.35889 11.1772 6.41018 11.244C6.46147 11.3108 6.4991 11.387 6.52092 11.4684C6.54274 11.5497 6.54833 11.6345 6.53736 11.718C6.52639 11.8015 6.49908 11.8821 6.45699 11.955L5.05799 14.378C5.0018 14.4758 4.92079 14.5569 4.82316 14.6133C4.72552 14.6696 4.61473 14.6992 4.50199 14.699ZM10.098 4.83202C10.0161 4.83189 9.93573 4.81025 9.86487 4.76926C9.79401 4.72826 9.73517 4.66936 9.69425 4.59846C9.65332 4.52756 9.63176 4.44714 9.63172 4.36527C9.63167 4.28341 9.65315 4.20297 9.69399 4.13202L11.093 1.70902C11.1581 1.60859 11.2592 1.53697 11.3756 1.50894C11.4919 1.48092 11.6146 1.49863 11.7182 1.55841C11.8219 1.6182 11.8987 1.71551 11.9327 1.83024C11.9667 1.94498 11.9553 2.0684 11.901 2.17502L10.502 4.59802C10.4615 4.66934 10.4027 4.72855 10.3317 4.76952C10.2607 4.81048 10.18 4.83272 10.098 4.83202Z" fill="white"/>
</g>
<defs>
<clipPath id="clip0_24_4">
<rect width="16" height="16" fill="white"/>
</clipPath>
</defs>
</svg>
